# xmcd
#
# Track frame offsets:
#	150
#	20294
#	37648
#	58514
#	73368
#	88804
#	107107
#	116037
#	134787
#	146937
#	162908
#	176920
#	188938
#	201135
#
# Disc length: 2910 seconds
#
# Revision: 1
# Processed by: cddbd v1.5.2PL0 Copyright (c) Steve Scherf et al.
# Submitted via: audiograbber 1.83.01
#
DISCID=d60b5c0e
DTITLE=Barry Wild - Hollywood to Malibu cd 2
DYEAR=1900
DGENRE=
TTITLE0=Neon Moon
TTITLE1=One night at a time
TTITLE2=Rainy night in Georgia
TTITLE3=Derroit City
TTITLE4=Acky breaky heart
TTITLE5=Help me make it through the night
TTITLE6=Welcome to my world
TTITLE7=Making memories of you
TTITLE8=Your all that matters to me
TTITLE9=Sugar daddy
TTITLE10=Love gotta hold on me
TTITLE11=Make the world go away
TTITLE12=When your in love with a beatiful woman
TTITLE13=Kiss you all over
EXTD=
EXTT0=
EXTT1=
EXTT2=
EXTT3=
EXTT4=
EXTT5=
EXTT6=
EXTT7=
EXTT8=
EXTT9=
EXTT10=
EXTT11=
EXTT12=
EXTT13=
PLAYORDER=
